<svg t="1694350046062" fill="#01c0ff" viewBox="0 0 1024 1024" version="1.1" xmlns="http://www.w3.org/2000/svg"
  p-id="2744" width="128" height="128">
  <path
    d="M736 789.333333H704v-128H320v128h-32c-17.066667 0-32 14.933333-32 32s14.933333 32 32 32h448c17.066667 0 32-14.933333 32-32s-14.933333-32-32-32z m-320-106.666666c17.066667 0 32 14.933333 32 32s-14.933333 32-32 32-32-14.933333-32-32 14.933333-32 32-32zM256 682.666667v-128H85.333333v128h-10.666666c-17.066667 0-32 14.933333-32 32S57.6 746.666667 74.666667 746.666667H256v-64z m-74.666667-106.666667c17.066667 0 32 14.933333 32 32S198.4 640 181.333333 640 149.333333 625.066667 149.333333 608 164.266667 576 181.333333 576zM949.333333 682.666667H938.666667v-128h-170.666667v192h181.333333c17.066667 0 32-14.933333 32-32s-14.933333-32-32-32z m-106.666666-106.666667c17.066667 0 32 14.933333 32 32s-14.933333 32-32 32-32-14.933333-32-32 14.933333-32 32-32zM704 192c0-23.466667-19.2-42.666667-42.666667-42.666667H362.666667c-23.466667 0-42.666667 19.2-42.666667 42.666667v85.333333h384V192z m-288 42.666667c-17.066667 0-32-14.933333-32-32S398.933333 170.666667 416 170.666667s32 14.933333 32 32-14.933333 32-32 32zM704 490.666667H320v128h384v-128z m-288 85.333333c-17.066667 0-32-14.933333-32-32s14.933333-32 32-32 32 14.933333 32 32-14.933333 32-32 32zM704 320H320v128h384v-128z m-288 85.333333c-17.066667 0-32-14.933333-32-32s14.933333-32 32-32 32 14.933333 32 32-14.933333 32-32 32zM256 384H85.333333v128h170.666667v-128z m-74.666667 85.333333c-17.066667 0-32-14.933333-32-32S164.266667 405.333333 181.333333 405.333333s32 14.933333 32 32S198.4 469.333333 181.333333 469.333333zM256 213.333333H128c-23.466667 0-42.666667 19.2-42.666667 42.666667v85.333333h170.666667v-128z m-74.666667 85.333334c-17.066667 0-32-14.933333-32-32S164.266667 234.666667 181.333333 234.666667s32 14.933333 32 32S198.4 298.666667 181.333333 298.666667zM938.666667 256c0-23.466667-19.2-42.666667-42.666667-42.666667h-128v128h170.666667v-85.333333z m-96 42.666667c-17.066667 0-32-14.933333-32-32s14.933333-32 32-32 32 14.933333 32 32-14.933333 32-32 32zM938.666667 384h-170.666667v128h170.666667v-128z m-96 85.333333c-17.066667 0-32-14.933333-32-32s14.933333-32 32-32 32 14.933333 32 32-14.933333 32-32 32z"
    p-id="2745"></path>
</svg>